<?xml version="1.0" encoding="UTF-8" standalone="no"?>
<!DOCTYPE svg PUBLIC "-//W3C//DTD SVG 1.1//EN"
 "http://www.w3.org/Graphics/SVG/1.1/DTD/svg11.dtd">
<!-- Generated by graphviz version 2.47.0 (20210316.0004)
 -->
<!-- Title: dependencies Pages: 1 -->
<svg width="504pt" height="211pt"
 viewBox="0.00 0.00 504.00 211.00" xmlns="http://www.w3.org/2000/svg" xmlns:xlink="http://www.w3.org/1999/xlink">
<g id="graph0" class="graph" transform="scale(1 1) rotate(0) translate(4 207)">
<title>dependencies</title>
<polygon fill="white" stroke="transparent" points="-4,4 -4,-207 500,-207 500,4 -4,4"/>
<text text-anchor="start" x="227.01" y="-42.4" font-family="Times-12" font-weight="bold" font-size="14.00">Legend</text>
<polygon fill="#ffffb3" stroke="transparent" points="14,-10 14,-30 34,-30 34,-10 14,-10"/>
<text text-anchor="start" x="37.63" y="-15.4" font-family="Times-12" font-size="14.00"> &#160;Declarations</text>
<polygon fill="#8dd3c7" stroke="transparent" points="127,-10 127,-30 147,-30 147,-10 127,-10"/>
<text text-anchor="start" x="150.73" y="-15.4" font-family="Times-12" font-size="14.00"> &#160;Module</text>
<polygon fill="#80b1d3" stroke="transparent" points="213,-10 213,-30 233,-30 233,-10 213,-10"/>
<text text-anchor="start" x="236.78" y="-15.4" font-family="Times-12" font-size="14.00"> &#160;Bootstrap</text>
<polygon fill="#fdb462" stroke="transparent" points="310,-10 310,-30 330,-30 330,-10 310,-10"/>
<text text-anchor="start" x="333.67" y="-15.4" font-family="Times-12" font-size="14.00"> &#160;Providers</text>
<polygon fill="#fb8072" stroke="transparent" points="406,-10 406,-30 426,-30 426,-10 406,-10"/>
<text text-anchor="start" x="429.73" y="-15.4" font-family="Times-12" font-size="14.00"> &#160;Exports</text>
<g id="clust1" class="cluster">
<title>cluster_AutenticacionModule</title>
<polygon fill="none" stroke="black" stroke-dasharray="1,5" points="10.5,-70 10.5,-195 485.5,-195 485.5,-70 10.5,-70"/>
</g>
<g id="clust2" class="cluster">
<title>cluster_AutenticacionModule_declarations</title>
<polygon fill="none" stroke="black" points="174.5,-78 174.5,-130 477.5,-130 477.5,-78 174.5,-78"/>
</g>
<g id="clust5" class="cluster">
<title>cluster_AutenticacionModule_imports</title>
<polygon fill="none" stroke="black" points="18.5,-78 18.5,-130 166.5,-130 166.5,-78 18.5,-78"/>
</g>
<!-- AltaEmpresaComponent -->
<g id="node1" class="node">
<title>AltaEmpresaComponent</title>
<polygon fill="#ffffb3" stroke="black" points="469.91,-122 315.09,-122 315.09,-86 469.91,-86 469.91,-122"/>
<text text-anchor="middle" x="392.5" y="-99.8" font-family="Times,serif" font-size="14.00">AltaEmpresaComponent</text>
</g>
<!-- AutenticacionModule -->
<g id="node3" class="node">
<title>AutenticacionModule</title>
<polygon fill="#8dd3c7" stroke="black" points="308.58,-187 305.58,-191 284.58,-191 281.58,-187 170.42,-187 170.42,-151 308.58,-151 308.58,-187"/>
<text text-anchor="middle" x="239.5" y="-164.8" font-family="Times,serif" font-size="14.00">AutenticacionModule</text>
</g>
<!-- AltaEmpresaComponent&#45;&gt;AutenticacionModule -->
<g id="edge1" class="edge">
<title>AltaEmpresaComponent&#45;&gt;AutenticacionModule</title>
<path fill="none" stroke="black" d="M315.2,-104C307.65,-104 302.71,-104 302.71,-104 302.71,-104 302.71,-140.89 302.71,-140.89"/>
<polygon fill="black" stroke="black" points="299.21,-140.89 302.71,-150.89 306.21,-140.89 299.21,-140.89"/>
</g>
<!-- LoginComponent -->
<g id="node2" class="node">
<title>LoginComponent</title>
<polygon fill="#ffffb3" stroke="black" points="296.78,-122 182.22,-122 182.22,-86 296.78,-86 296.78,-122"/>
<text text-anchor="middle" x="239.5" y="-99.8" font-family="Times,serif" font-size="14.00">LoginComponent</text>
</g>
<!-- LoginComponent&#45;&gt;AutenticacionModule -->
<g id="edge2" class="edge">
<title>LoginComponent&#45;&gt;AutenticacionModule</title>
<path fill="none" stroke="black" d="M239.5,-122.11C239.5,-122.11 239.5,-140.99 239.5,-140.99"/>
<polygon fill="black" stroke="black" points="236,-140.99 239.5,-150.99 243,-140.99 236,-140.99"/>
</g>
<!-- AuthRoutingModule -->
<g id="node4" class="node">
<title>AuthRoutingModule</title>
<polygon fill="#8dd3c7" stroke="black" points="158.67,-122 155.67,-126 134.67,-126 131.67,-122 26.33,-122 26.33,-86 158.67,-86 158.67,-122"/>
<text text-anchor="middle" x="92.5" y="-99.8" font-family="Times,serif" font-size="14.00">AuthRoutingModule</text>
</g>
<!-- AuthRoutingModule&#45;&gt;AutenticacionModule -->
<g id="edge3" class="edge">
<title>AuthRoutingModule&#45;&gt;AutenticacionModule</title>
<path fill="none" stroke="black" d="M158.93,-104C169.1,-104 176.29,-104 176.29,-104 176.29,-104 176.29,-140.89 176.29,-140.89"/>
<polygon fill="black" stroke="black" points="172.79,-140.89 176.29,-150.89 179.79,-140.89 172.79,-140.89"/>
</g>
</g>
</svg>
