<?xml version="1.0" encoding="UTF-8" standalone="no"?>
<!DOCTYPE svg PUBLIC "-//W3C//DTD SVG 1.1//EN"
 "http://www.w3.org/Graphics/SVG/1.1/DTD/svg11.dtd">
<!-- Generated by graphviz version 2.47.0 (20210316.0004)
 -->
<!-- Title: dependencies Pages: 1 -->
<svg width="1746pt" height="211pt"
 viewBox="0.00 0.00 1746.00 211.00" xmlns="http://www.w3.org/2000/svg" xmlns:xlink="http://www.w3.org/1999/xlink">
<g id="graph0" class="graph" transform="scale(1 1) rotate(0) translate(4 207)">
<title>dependencies</title>
<polygon fill="white" stroke="transparent" points="-4,4 -4,-207 1742,-207 1742,4 -4,4"/>
<text text-anchor="start" x="848.01" y="-42.4" font-family="Times-12" font-weight="bold" font-size="14.00">Legend</text>
<polygon fill="#ffffb3" stroke="transparent" points="635,-10 635,-30 655,-30 655,-10 635,-10"/>
<text text-anchor="start" x="658.63" y="-15.4" font-family="Times-12" font-size="14.00"> &#160;Declarations</text>
<polygon fill="#8dd3c7" stroke="transparent" points="748,-10 748,-30 768,-30 768,-10 748,-10"/>
<text text-anchor="start" x="771.73" y="-15.4" font-family="Times-12" font-size="14.00"> &#160;Module</text>
<polygon fill="#80b1d3" stroke="transparent" points="834,-10 834,-30 854,-30 854,-10 834,-10"/>
<text text-anchor="start" x="857.78" y="-15.4" font-family="Times-12" font-size="14.00"> &#160;Bootstrap</text>
<polygon fill="#fdb462" stroke="transparent" points="931,-10 931,-30 951,-30 951,-10 931,-10"/>
<text text-anchor="start" x="954.67" y="-15.4" font-family="Times-12" font-size="14.00"> &#160;Providers</text>
<polygon fill="#fb8072" stroke="transparent" points="1027,-10 1027,-30 1047,-30 1047,-10 1027,-10"/>
<text text-anchor="start" x="1050.73" y="-15.4" font-family="Times-12" font-size="14.00"> &#160;Exports</text>
<g id="clust1" class="cluster">
<title>cluster_TrabajadorModule</title>
<polygon fill="none" stroke="black" stroke-dasharray="1,5" points="8,-70 8,-195 1730,-195 1730,-70 8,-70"/>
</g>
<g id="clust2" class="cluster">
<title>cluster_TrabajadorModule_declarations</title>
<polygon fill="none" stroke="black" points="1502,-78 1502,-130 1722,-130 1722,-78 1502,-78"/>
</g>
<g id="clust4" class="cluster">
<title>cluster_TrabajadorModule_imports</title>
<polygon fill="none" stroke="black" points="16,-78 16,-130 1494,-130 1494,-78 16,-78"/>
</g>
<!-- TrabajadorDashboardComponent -->
<g id="node1" class="node">
<title>TrabajadorDashboardComponent</title>
<polygon fill="#ffffb3" stroke="black" points="1713.88,-122 1510.12,-122 1510.12,-86 1713.88,-86 1713.88,-122"/>
<text text-anchor="middle" x="1612" y="-99.8" font-family="Times,serif" font-size="14.00">TrabajadorDashboardComponent</text>
</g>
<!-- TrabajadorModule -->
<g id="node2" class="node">
<title>TrabajadorModule</title>
<polygon fill="#8dd3c7" stroke="black" points="777.46,-187 774.46,-191 753.46,-191 750.46,-187 656.54,-187 656.54,-151 777.46,-151 777.46,-187"/>
<text text-anchor="middle" x="717" y="-164.8" font-family="Times,serif" font-size="14.00">TrabajadorModule</text>
</g>
<!-- TrabajadorDashboardComponent&#45;&gt;TrabajadorModule -->
<g id="edge1" class="edge">
<title>TrabajadorDashboardComponent&#45;&gt;TrabajadorModule</title>
<path fill="none" stroke="black" d="M1612,-122.29C1612,-144.21 1612,-178 1612,-178 1612,-178 787.46,-178 787.46,-178"/>
<polygon fill="black" stroke="black" points="787.46,-174.5 777.46,-178 787.46,-181.5 787.46,-174.5"/>
</g>
<!-- DashboardFichajesTrabajadorComponent -->
<g id="node3" class="node">
<title>DashboardFichajesTrabajadorComponent</title>
<polygon fill="#8dd3c7" stroke="black" points="1486.03,-122 1483.03,-126 1462.03,-126 1459.03,-122 1235.97,-122 1235.97,-86 1486.03,-86 1486.03,-122"/>
<text text-anchor="middle" x="1361" y="-99.8" font-family="Times,serif" font-size="14.00">DashboardFichajesTrabajadorComponent</text>
</g>
<!-- DashboardFichajesTrabajadorComponent&#45;&gt;TrabajadorModule -->
<g id="edge2" class="edge">
<title>DashboardFichajesTrabajadorComponent&#45;&gt;TrabajadorModule</title>
<path fill="none" stroke="black" d="M1361,-122.11C1361,-141.34 1361,-169 1361,-169 1361,-169 787.59,-169 787.59,-169"/>
<polygon fill="black" stroke="black" points="787.59,-165.5 777.59,-169 787.59,-172.5 787.59,-165.5"/>
</g>
<!-- DashboardNominasTrabajadorComponent -->
<g id="node4" class="node">
<title>DashboardNominasTrabajadorComponent</title>
<polygon fill="#8dd3c7" stroke="black" points="1217.93,-122 1214.93,-126 1193.93,-126 1190.93,-122 964.07,-122 964.07,-86 1217.93,-86 1217.93,-122"/>
<text text-anchor="middle" x="1091" y="-99.8" font-family="Times,serif" font-size="14.00">DashboardNominasTrabajadorComponent</text>
</g>
<!-- DashboardNominasTrabajadorComponent&#45;&gt;TrabajadorModule -->
<g id="edge3" class="edge">
<title>DashboardNominasTrabajadorComponent&#45;&gt;TrabajadorModule</title>
<path fill="none" stroke="black" d="M1091,-122.03C1091,-138.4 1091,-160 1091,-160 1091,-160 787.51,-160 787.51,-160"/>
<polygon fill="black" stroke="black" points="787.51,-156.5 777.51,-160 787.51,-163.5 787.51,-156.5"/>
</g>
<!-- DashboardPermisosTrabajadorComponent -->
<g id="node5" class="node">
<title>DashboardPermisosTrabajadorComponent</title>
<polygon fill="#8dd3c7" stroke="black" points="946.21,-122 943.21,-126 922.21,-126 919.21,-122 691.79,-122 691.79,-86 946.21,-86 946.21,-122"/>
<text text-anchor="middle" x="819" y="-99.8" font-family="Times,serif" font-size="14.00">DashboardPermisosTrabajadorComponent</text>
</g>
<!-- DashboardPermisosTrabajadorComponent&#45;&gt;TrabajadorModule -->
<g id="edge4" class="edge">
<title>DashboardPermisosTrabajadorComponent&#45;&gt;TrabajadorModule</title>
<path fill="none" stroke="black" d="M734.56,-122.11C734.56,-122.11 734.56,-140.99 734.56,-140.99"/>
<polygon fill="black" stroke="black" points="731.06,-140.99 734.56,-150.99 738.06,-140.99 731.06,-140.99"/>
</g>
<!-- ModalComponent -->
<g id="node6" class="node">
<title>ModalComponent</title>
<polygon fill="#8dd3c7" stroke="black" points="673.88,-122 670.88,-126 649.88,-126 646.88,-122 556.12,-122 556.12,-86 673.88,-86 673.88,-122"/>
<text text-anchor="middle" x="615" y="-99.8" font-family="Times,serif" font-size="14.00">ModalComponent</text>
</g>
<!-- ModalComponent&#45;&gt;TrabajadorModule -->
<g id="edge5" class="edge">
<title>ModalComponent&#45;&gt;TrabajadorModule</title>
<path fill="none" stroke="black" d="M665.23,-122.11C665.23,-122.11 665.23,-140.99 665.23,-140.99"/>
<polygon fill="black" stroke="black" points="661.73,-140.99 665.23,-150.99 668.73,-140.99 661.73,-140.99"/>
</g>
<!-- NavbarTrabajadorComponent -->
<g id="node7" class="node">
<title>NavbarTrabajadorComponent</title>
<polygon fill="#8dd3c7" stroke="black" points="537.94,-122 534.94,-126 513.94,-126 510.94,-122 354.06,-122 354.06,-86 537.94,-86 537.94,-122"/>
<text text-anchor="middle" x="446" y="-99.8" font-family="Times,serif" font-size="14.00">NavbarTrabajadorComponent</text>
</g>
<!-- NavbarTrabajadorComponent&#45;&gt;TrabajadorModule -->
<g id="edge6" class="edge">
<title>NavbarTrabajadorComponent&#45;&gt;TrabajadorModule</title>
<path fill="none" stroke="black" d="M446,-122.03C446,-138.4 446,-160 446,-160 446,-160 646.52,-160 646.52,-160"/>
<polygon fill="black" stroke="black" points="646.52,-163.5 656.52,-160 646.52,-156.5 646.52,-163.5"/>
</g>
<!-- NgOptimizedImage -->
<g id="node8" class="node">
<title>NgOptimizedImage</title>
<polygon fill="#8dd3c7" stroke="black" points="335.69,-122 332.69,-126 311.69,-126 308.69,-122 208.31,-122 208.31,-86 335.69,-86 335.69,-122"/>
<text text-anchor="middle" x="272" y="-99.8" font-family="Times,serif" font-size="14.00">NgOptimizedImage</text>
</g>
<!-- NgOptimizedImage&#45;&gt;TrabajadorModule -->
<g id="edge7" class="edge">
<title>NgOptimizedImage&#45;&gt;TrabajadorModule</title>
<path fill="none" stroke="black" d="M272,-122.11C272,-141.34 272,-169 272,-169 272,-169 646.52,-169 646.52,-169"/>
<polygon fill="black" stroke="black" points="646.52,-172.5 656.52,-169 646.52,-165.5 646.52,-172.5"/>
</g>
<!-- TrabajadorRoutingModule -->
<g id="node9" class="node">
<title>TrabajadorRoutingModule</title>
<polygon fill="#8dd3c7" stroke="black" points="190.08,-122 187.08,-126 166.08,-126 163.08,-122 23.92,-122 23.92,-86 190.08,-86 190.08,-122"/>
<text text-anchor="middle" x="107" y="-99.8" font-family="Times,serif" font-size="14.00">TrabajadorRoutingModule</text>
</g>
<!-- TrabajadorRoutingModule&#45;&gt;TrabajadorModule -->
<g id="edge8" class="edge">
<title>TrabajadorRoutingModule&#45;&gt;TrabajadorModule</title>
<path fill="none" stroke="black" d="M107,-122.29C107,-144.21 107,-178 107,-178 107,-178 646.28,-178 646.28,-178"/>
<polygon fill="black" stroke="black" points="646.28,-181.5 656.28,-178 646.28,-174.5 646.28,-181.5"/>
</g>
</g>
</svg>
