<?xml version="1.0" encoding="UTF-8" standalone="no"?>
<!DOCTYPE svg PUBLIC "-//W3C//DTD SVG 1.1//EN"
 "http://www.w3.org/Graphics/SVG/1.1/DTD/svg11.dtd">
<!-- Generated by graphviz version 2.47.0 (20210316.0004)
 -->
<!-- Title: dependencies Pages: 1 -->
<svg width="1264pt" height="211pt"
 viewBox="0.00 0.00 1264.00 211.00" xmlns="http://www.w3.org/2000/svg" xmlns:xlink="http://www.w3.org/1999/xlink">
<g id="graph0" class="graph" transform="scale(1 1) rotate(0) translate(4 207)">
<title>dependencies</title>
<polygon fill="white" stroke="transparent" points="-4,4 -4,-207 1260,-207 1260,4 -4,4"/>
<text text-anchor="start" x="607.01" y="-42.4" font-family="Times-12" font-weight="bold" font-size="14.00">Legend</text>
<polygon fill="#ffffb3" stroke="transparent" points="394,-10 394,-30 414,-30 414,-10 394,-10"/>
<text text-anchor="start" x="417.63" y="-15.4" font-family="Times-12" font-size="14.00"> &#160;Declarations</text>
<polygon fill="#8dd3c7" stroke="transparent" points="507,-10 507,-30 527,-30 527,-10 507,-10"/>
<text text-anchor="start" x="530.73" y="-15.4" font-family="Times-12" font-size="14.00"> &#160;Module</text>
<polygon fill="#80b1d3" stroke="transparent" points="593,-10 593,-30 613,-30 613,-10 593,-10"/>
<text text-anchor="start" x="616.78" y="-15.4" font-family="Times-12" font-size="14.00"> &#160;Bootstrap</text>
<polygon fill="#fdb462" stroke="transparent" points="690,-10 690,-30 710,-30 710,-10 690,-10"/>
<text text-anchor="start" x="713.67" y="-15.4" font-family="Times-12" font-size="14.00"> &#160;Providers</text>
<polygon fill="#fb8072" stroke="transparent" points="786,-10 786,-30 806,-30 806,-10 786,-10"/>
<text text-anchor="start" x="809.73" y="-15.4" font-family="Times-12" font-size="14.00"> &#160;Exports</text>
<g id="clust1" class="cluster">
<title>cluster_EmpresaModule</title>
<polygon fill="none" stroke="black" stroke-dasharray="1,5" points="8,-70 8,-195 1248,-195 1248,-70 8,-70"/>
</g>
<g id="clust2" class="cluster">
<title>cluster_EmpresaModule_declarations</title>
<polygon fill="none" stroke="black" points="1034,-78 1034,-130 1240,-130 1240,-78 1034,-78"/>
</g>
<g id="clust4" class="cluster">
<title>cluster_EmpresaModule_imports</title>
<polygon fill="none" stroke="black" points="16,-78 16,-130 1026,-130 1026,-78 16,-78"/>
</g>
<!-- EmpresaDashboardComponent -->
<g id="node1" class="node">
<title>EmpresaDashboardComponent</title>
<polygon fill="#ffffb3" stroke="black" points="1232.45,-122 1041.55,-122 1041.55,-86 1232.45,-86 1232.45,-122"/>
<text text-anchor="middle" x="1137" y="-99.8" font-family="Times,serif" font-size="14.00">EmpresaDashboardComponent</text>
</g>
<!-- EmpresaModule -->
<g id="node2" class="node">
<title>EmpresaModule</title>
<polygon fill="#8dd3c7" stroke="black" points="658.03,-187 655.03,-191 634.03,-191 631.03,-187 549.97,-187 549.97,-151 658.03,-151 658.03,-187"/>
<text text-anchor="middle" x="604" y="-164.8" font-family="Times,serif" font-size="14.00">EmpresaModule</text>
</g>
<!-- EmpresaDashboardComponent&#45;&gt;EmpresaModule -->
<g id="edge1" class="edge">
<title>EmpresaDashboardComponent&#45;&gt;EmpresaModule</title>
<path fill="none" stroke="black" d="M1137,-122.28C1137,-143.32 1137,-175 1137,-175 1137,-175 668.04,-175 668.04,-175"/>
<polygon fill="black" stroke="black" points="668.04,-171.5 658.04,-175 668.04,-178.5 668.04,-171.5"/>
</g>
<!-- DashboardFichajesComponent -->
<g id="node3" class="node">
<title>DashboardFichajesComponent</title>
<polygon fill="#8dd3c7" stroke="black" points="1018.13,-122 1015.13,-126 994.13,-126 991.13,-122 829.87,-122 829.87,-86 1018.13,-86 1018.13,-122"/>
<text text-anchor="middle" x="924" y="-99.8" font-family="Times,serif" font-size="14.00">DashboardFichajesComponent</text>
</g>
<!-- DashboardFichajesComponent&#45;&gt;EmpresaModule -->
<g id="edge2" class="edge">
<title>DashboardFichajesComponent&#45;&gt;EmpresaModule</title>
<path fill="none" stroke="black" d="M924,-122.02C924,-139.37 924,-163 924,-163 924,-163 668.28,-163 668.28,-163"/>
<polygon fill="black" stroke="black" points="668.28,-159.5 658.28,-163 668.28,-166.5 668.28,-159.5"/>
</g>
<!-- DashboardPermisosComponent -->
<g id="node4" class="node">
<title>DashboardPermisosComponent</title>
<polygon fill="#8dd3c7" stroke="black" points="811.8,-122 808.8,-126 787.8,-126 784.8,-122 618.2,-122 618.2,-86 811.8,-86 811.8,-122"/>
<text text-anchor="middle" x="715" y="-99.8" font-family="Times,serif" font-size="14.00">DashboardPermisosComponent</text>
</g>
<!-- DashboardPermisosComponent&#45;&gt;EmpresaModule -->
<g id="edge3" class="edge">
<title>DashboardPermisosComponent&#45;&gt;EmpresaModule</title>
<path fill="none" stroke="black" d="M638.31,-122.11C638.31,-122.11 638.31,-140.99 638.31,-140.99"/>
<polygon fill="black" stroke="black" points="634.81,-140.99 638.31,-150.99 641.81,-140.99 634.81,-140.99"/>
</g>
<!-- DashboardTrabajadoresComponent -->
<g id="node5" class="node">
<title>DashboardTrabajadoresComponent</title>
<polygon fill="#8dd3c7" stroke="black" points="600.54,-122 597.54,-126 576.54,-126 573.54,-122 385.46,-122 385.46,-86 600.54,-86 600.54,-122"/>
<text text-anchor="middle" x="493" y="-99.8" font-family="Times,serif" font-size="14.00">DashboardTrabajadoresComponent</text>
</g>
<!-- DashboardTrabajadoresComponent&#45;&gt;EmpresaModule -->
<g id="edge4" class="edge">
<title>DashboardTrabajadoresComponent&#45;&gt;EmpresaModule</title>
<path fill="none" stroke="black" d="M575.13,-122.11C575.13,-122.11 575.13,-140.99 575.13,-140.99"/>
<polygon fill="black" stroke="black" points="571.63,-140.99 575.13,-150.99 578.63,-140.99 571.63,-140.99"/>
</g>
<!-- EmpresaRoutingModule -->
<g id="node6" class="node">
<title>EmpresaRoutingModule</title>
<polygon fill="#8dd3c7" stroke="black" points="367.65,-122 364.65,-126 343.65,-126 340.65,-122 214.35,-122 214.35,-86 367.65,-86 367.65,-122"/>
<text text-anchor="middle" x="291" y="-99.8" font-family="Times,serif" font-size="14.00">EmpresaRoutingModule</text>
</g>
<!-- EmpresaRoutingModule&#45;&gt;EmpresaModule -->
<g id="edge5" class="edge">
<title>EmpresaRoutingModule&#45;&gt;EmpresaModule</title>
<path fill="none" stroke="black" d="M291,-122.02C291,-139.37 291,-163 291,-163 291,-163 539.84,-163 539.84,-163"/>
<polygon fill="black" stroke="black" points="539.84,-166.5 549.84,-163 539.84,-159.5 539.84,-166.5"/>
</g>
<!-- NavbarEmpresaComponent -->
<g id="node7" class="node">
<title>NavbarEmpresaComponent</title>
<polygon fill="#8dd3c7" stroke="black" points="195.51,-122 192.51,-126 171.51,-126 168.51,-122 24.49,-122 24.49,-86 195.51,-86 195.51,-122"/>
<text text-anchor="middle" x="110" y="-99.8" font-family="Times,serif" font-size="14.00">NavbarEmpresaComponent</text>
</g>
<!-- NavbarEmpresaComponent&#45;&gt;EmpresaModule -->
<g id="edge6" class="edge">
<title>NavbarEmpresaComponent&#45;&gt;EmpresaModule</title>
<path fill="none" stroke="black" d="M110,-122.28C110,-143.32 110,-175 110,-175 110,-175 539.72,-175 539.72,-175"/>
<polygon fill="black" stroke="black" points="539.72,-178.5 549.72,-175 539.72,-171.5 539.72,-178.5"/>
</g>
</g>
</svg>
